<?xml version="1.0" encoding="UTF-8"?>
<!DOCTYPE svg PUBLIC "-//W3C//DTD SVG 1.1//EN" "http://www.w3.org/Graphics/SVG/1.1/DTD/svg11.dtd">
<!-- Creator: CorelDRAW -->
<svg xmlns="http://www.w3.org/2000/svg" xml:space="preserve" width="512px" height="512px" version="1.1" style="shape-rendering:geometricPrecision; text-rendering:geometricPrecision; image-rendering:optimizeQuality; fill-rule:evenodd; clip-rule:evenodd"
viewBox="0 0 2185.53 2185.53"
 xmlns:xlink="http://www.w3.org/1999/xlink"
 xmlns:xodm="http://www.corel.com/coreldraw/odm/2003">
 <defs>
  <style type="text/css">
   <![CDATA[
    .fil2 {fill:none}
    .fil0 {fill:#35B551}
    .fil1 {fill:#5A72E7}
   ]]>
  </style>
 </defs>
 <g id="Слой_x0020_1">
  <metadata id="CorelCorpID_0Corel-Layer"/>
  <path class="fil0" d="M1037.09 40.87c8.07,14.87 9.44,12.37 21.37,24.26 9.11,9.1 13.21,14.06 16.88,26.35 9.17,30.74 -4.1,53.75 -18.35,68.78 -25.07,26.42 -461.81,330.64 -525.12,375.49 -130.47,92.41 -138.28,96.86 -259.39,47.12l-22.37 13.79c14.56,17.06 157.65,115.55 187.96,136.66l193.63 135.23c14.61,-7.08 12.88,-6.57 23.13,-18.08 -109.27,-82.3 7.28,-140.84 89.47,-198.02l440.91 -311.16c119.74,-83.36 172.94,-32.22 264.93,31.42 30.54,21.13 88.07,53.82 79.28,102.69 -6.78,37.7 -62.51,69.76 -93.78,92.49 -73.4,53.36 -148.03,104.96 -221.73,156.56 -75.61,52.93 -146.04,104.74 -221.67,156.75 -58.3,40.09 -114.85,92.72 -207,55.83 -39.26,-15.72 -27.46,-28.49 -61.17,-4.19l381.81 271.2c14.25,-5.68 14.77,-6.01 22.16,-17.69 -99.01,-93.84 -8.54,-125.24 91.02,-197.98l437.68 -309.51c33.93,-23.89 70.57,-56.19 125.51,-60.66 94.63,-7.71 99.68,57.28 132.63,12.55l-748.12 -530.06c-22.42,-16.19 -91.21,-71.2 -114.79,-73.49l-14.88 13.67z"/>
  <path class="fil0" d="M168.29 1483.14c0.09,32.02 10.69,30.96 33.82,46.57l350.08 245.13c1.43,-46.85 -63.55,-49.85 -88.95,-137.48 -16.01,-55.22 -8.15,-451.16 -8.36,-551.6 -0.09,-44.84 -4.63,-66.78 19.72,-94.07 43.61,-8.44 78.58,26.09 106,44.64 62.97,42.61 129.18,83.59 151.98,159.47 14.71,48.98 7.71,394 7.71,459.93 0,40.43 4.29,115.15 -1.34,151.65 -9.97,64.62 -64.75,21.81 -95.6,12.22 0.06,30.09 13.15,32.09 32.91,45.4 18.4,12.4 33.35,22.88 50.68,35.58l299.58 209.54c1.13,-37.9 -13.73,-22.45 -53.05,-73 -68.53,-88.09 -43.43,-200.44 -43.43,-343.07 0,-44.26 -8.87,-350.64 8.53,-378 21.95,-34.52 64.92,2.08 88.47,7.49 0.4,-34.92 -50.28,-57.26 -94.43,-88.45 -229.45,-162.08 -479.84,-345.98 -709.57,-502.18 -15.79,-10.73 -41.02,-26.9 -53.48,-37.44 -5.9,51.68 72.16,48.4 93.41,160.35 8.17,43.04 2.96,434.85 2.96,512.53 0,29.16 4.6,97.8 -6.97,120.57 -19.69,38.73 -67.7,3.48 -90.67,-5.78z"/>
  <path class="fil1" d="M1590.03 983.65c178.93,-57.62 152.02,353.48 130.86,463.07 -27.72,143.61 -108.79,337.3 -254.26,382.92 -179.04,56.15 -158.29,-341.2 -132.78,-463.18 19.36,-92.59 43.57,-166.17 85.95,-234.98 33.38,-54.2 99.03,-124.9 170.23,-147.83zm132.49 -91.94c-213.79,48.43 -391.92,254 -497.1,433.29 -52.14,88.87 -105.64,226.7 -108.21,354.54 -2.97,147.76 49.27,274.48 215.84,241.44 193.31,-38.36 404.21,-258.72 495.44,-433.61 51.64,-99 106.01,-214.65 109.11,-353.55 1.56,-70.13 -8.04,-139.25 -42.38,-186.09 -32.02,-43.68 -100.75,-72.33 -172.7,-56.02z"/>
  <rect class="fil2" width="2185.53" height="2185.53"/>
 </g>
</svg>
